<?xml version="1.0" standalone="no"?>
<svg xmlns="http://www.w3.org/2000/svg" viewBox="0 0 145 71" width="145" height="71"><g fill="#ead017" color="#ead017" transform="translate(54.981 0) scale(0.35) "><svg width="100.0" height="100.0" x="0.0" y="0.0" viewBox="0 0 100 100"><g><path d="M49.5,38c0-1.3-1.1-2.4-2.4-2.4h-30c-1.3,0-2.4,1.1-2.4,2.4s1.1,2.4,2.4,2.4h30C48.5,40.4,49.5,39.3,49.5,38z"></path><path d="M45.6,49.5c0-1.3-1.1-2.4-2.4-2.4H27.4c-1.3,0-2.4,1.1-2.4,2.4s1.1,2.4,2.4,2.4h15.8C44.6,51.9,45.6,50.8,45.6,49.5z"></path><path d="M69.1,24.1H7.4c-1.3,0-2.4,1.1-2.4,2.4s1.1,2.4,2.4,2.4h61.8c11.7,0,21.1,9.5,21.1,21.1s-9.5,21.1-21.1,21.1   c-7.9,0-15.1-4.4-18.8-11.4c-0.4-0.8-1.2-1.3-2.1-1.3H36c-1.3,0-2.4,1.1-2.4,2.4s1.1,2.4,2.4,2.4h10.8c4.6,7.9,13.1,12.8,22.3,12.8   C83.4,75.9,95,64.3,95,50S83.4,24.1,69.1,24.1z"></path><path d="M69.1,33.1c-1.4,0-2.6,1.2-2.6,2.6v14.8c0,0,0,0,0,0c0,0.2,0,0.3,0,0.5c0,0,0,0,0,0c0,0.2,0.1,0.3,0.1,0.5c0,0,0,0,0,0   c0.1,0.1,0.1,0.3,0.2,0.4c0,0,0,0,0,0c0.1,0.1,0.2,0.3,0.3,0.4c0,0,0,0,0,0l6.6,6.6c0.5,0.5,1.2,0.8,1.8,0.8c0.7,0,1.3-0.3,1.8-0.8   c1-1,1-2.7,0-3.7l-5.9-5.9V35.7C71.7,34.3,70.6,33.1,69.1,33.1z"></path></g></svg></g><line x1="56.03" y1="41" x2="88.93" y2="41" stroke="#000000" stroke-linecap="round"></line><path fill="#000000" fill-rule="nonzero" d="M11.26 1.85L11.26 4.82L5.23 4.82Q4.18 4.82 3.76 5.23Q3.34 5.64 3.34 6.65L3.34 6.65L3.34 9.02L9.60 9.02L9.36 12L3.34 12L3.34 18.94L0 18.94L0 5.33Q0 3.43 0.83 2.64Q1.66 1.85 3.67 1.85L3.67 1.85L11.26 1.85ZM23.35 5.14L23.35 18.94L21.26 18.94L20.30 17.28L16.97 19.08Q14.18 19.08 13.22 17.06L13.22 17.06Q12.74 16.08 12.56 14.94Q12.38 13.80 12.38 12.56Q12.38 11.33 12.41 10.74Q12.43 10.15 12.53 9.37Q12.62 8.59 12.80 8.06Q12.98 7.54 13.32 6.97Q13.66 6.41 14.14 6.07L14.14 6.07Q15.22 5.33 16.94 5.33L16.94 5.33L20.23 5.33L23.35 5.14ZM17.86 15.79L20.23 14.57L20.23 8.14L17.86 8.14Q16.54 8.14 16.02 9.14Q15.50 10.15 15.50 12.16Q15.50 14.16 16.00 14.98Q16.49 15.79 17.86 15.79L17.86 15.79ZM36.14 15.14L36.14 15.14L36.14 15.50Q36 17.30 34.62 18.22Q33.24 19.13 31.18 19.13L31.18 19.13Q28.13 19.13 26.90 18.02L26.90 18.02Q25.78 17.02 25.78 15.05L25.78 15.05L25.78 14.76L28.61 14.76Q28.61 15.86 29.18 16.27Q29.76 16.68 31.18 16.68L31.18 16.68Q33.10 16.68 33.10 15.29L33.10 15.29Q33.10 14.14 32.42 13.75L32.42 13.75Q32.11 13.56 31.63 13.46L31.63 13.46L29.21 13.06Q26.04 12.55 26.04 9.10L26.04 9.10Q26.04 7.18 27.44 6.11Q28.85 5.04 31.01 5.04L31.01 5.04Q35.93 5.04 35.93 9.29L35.93 9.29L35.93 9.60L33.22 9.60Q33.17 8.47 32.62 8.06Q32.06 7.66 31.07 7.66Q30.07 7.66 29.57 8.05Q29.06 8.45 29.06 8.93L29.06 8.93Q29.06 10.30 30.17 10.49L30.17 10.49L33.07 11.02Q36.14 11.59 36.14 15.14ZM44.62 16.30L44.62 18.94L42.67 18.94Q40.90 18.94 39.97 17.88Q39.05 16.82 39.05 15.36L39.05 15.36L39.05 8.16L37.73 8.16L37.73 5.78L39.05 5.78L39.05 3.10L42.17 3.10L42.17 5.78L44.38 5.78L44.38 8.16L42.17 8.16L42.17 15.17Q42.17 16.30 43.25 16.30L43.25 16.30L44.62 16.30ZM65.90 10.32L65.90 10.32L65.93 12.17Q65.83 13.92 65.50 15.12Q65.16 16.32 64.18 17.30L64.18 17.30Q62.54 18.94 59.42 18.94L59.42 18.94Q55.75 18.94 54.38 17.96Q53.02 16.99 53.02 14.45L53.02 14.45L53.02 1.85L59.66 1.85Q62.54 1.85 64.18 3.48L64.18 3.48Q65.50 4.80 65.74 6.70L65.74 6.70Q65.90 8.04 65.90 10.32ZM61.85 14.90Q62.30 14.35 62.44 13.38Q62.57 12.41 62.57 10.34Q62.57 8.28 62.44 7.36Q62.30 6.43 61.85 5.88L61.85 5.88Q60.98 4.82 59.35 4.82L59.35 4.82L56.35 4.82L56.35 14.28Q56.35 15.24 57 15.60Q57.65 15.96 59.32 15.96Q60.98 15.96 61.85 14.90L61.85 14.90ZM70.18 0Q71.30 0 71.64 0.35Q71.98 0.70 71.98 1.81Q71.98 2.93 71.63 3.28Q71.28 3.62 70.16 3.62Q69.05 3.62 68.70 3.26Q68.35 2.90 68.35 1.80Q68.35 0.70 68.70 0.35Q69.05 0 70.18 0ZM71.71 5.74L71.71 18.94L68.59 18.94L68.59 5.74L71.71 5.74ZM84.60 15.14L84.60 15.14L84.60 15.50Q84.46 17.30 83.08 18.22Q81.70 19.13 79.63 19.13L79.63 19.13Q76.58 19.13 75.36 18.02L75.36 18.02Q74.23 17.02 74.23 15.05L74.23 15.05L74.23 14.76L77.06 14.76Q77.06 15.86 77.64 16.27Q78.22 16.68 79.63 16.68L79.63 16.68Q81.55 16.68 81.55 15.29L81.55 15.29Q81.55 14.14 80.88 13.75L80.88 13.75Q80.57 13.56 80.09 13.46L80.09 13.46L77.66 13.06Q74.50 12.55 74.50 9.10L74.50 9.10Q74.50 7.18 75.90 6.11Q77.30 5.04 79.46 5.04L79.46 5.04Q84.38 5.04 84.38 9.29L84.38 9.29L84.38 9.60L81.67 9.60Q81.62 8.47 81.07 8.06Q80.52 7.66 79.52 7.66Q78.53 7.66 78.02 8.05Q77.52 8.45 77.52 8.93L77.52 8.93Q77.52 10.30 78.62 10.49L78.62 10.49L81.53 11.02Q84.60 11.59 84.60 15.14ZM98.16 11.71L98.16 11.71Q98.16 17.06 95.40 18.55L95.40 18.55Q94.27 19.15 92.64 19.15L92.64 19.15L90.34 17.66L90.34 23.02L87.22 23.02L87.22 5.33L93.36 5.33Q96.14 5.33 97.15 6.90Q98.16 8.47 98.16 11.71ZM95.04 12.19L95.04 12.19Q95.04 8.14 92.45 8.14L92.45 8.14L90.34 8.14L90.34 14.50L92.45 15.86Q93.84 15.86 94.44 14.99Q95.04 14.11 95.04 12.19ZM110.09 5.14L110.09 18.94L108 18.94L107.04 17.28L103.70 19.08Q100.92 19.08 99.96 17.06L99.96 17.06Q99.48 16.08 99.30 14.94Q99.12 13.80 99.12 12.56Q99.12 11.33 99.14 10.74Q99.17 10.15 99.26 9.37Q99.36 8.59 99.54 8.06Q99.72 7.54 100.06 6.97Q100.39 6.41 100.87 6.07L100.87 6.07Q101.95 5.33 103.68 5.33L103.68 5.33L106.97 5.33L110.09 5.14ZM104.59 15.79L106.97 14.57L106.97 8.14L104.59 8.14Q103.27 8.14 102.76 9.14Q102.24 10.15 102.24 12.16Q102.24 14.16 102.73 14.98Q103.22 15.79 104.59 15.79L104.59 15.79ZM119.33 16.30L119.33 18.94L117.38 18.94Q115.61 18.94 114.68 17.88Q113.76 16.82 113.76 15.36L113.76 15.36L113.76 8.16L112.44 8.16L112.44 5.78L113.76 5.78L113.76 3.10L116.88 3.10L116.88 5.78L119.09 5.78L119.09 8.16L116.88 8.16L116.88 15.17Q116.88 16.30 117.96 16.30L117.96 16.30L119.33 16.30ZM128.93 13.92L128.93 13.92L131.76 13.90Q131.74 14.09 131.71 14.59Q131.69 15.10 131.68 15.28Q131.66 15.46 131.62 15.84Q131.57 16.22 131.51 16.40Q131.45 16.58 131.35 16.87L131.35 16.87Q130.92 18.12 129 18.84L129 18.84Q127.78 19.27 126.44 19.27Q125.11 19.27 124.03 18.84Q122.95 18.41 122.33 17.74L122.33 17.74Q120.91 16.25 120.91 12.16Q120.91 8.06 122.33 6.58L122.33 6.58Q122.95 5.90 124.03 5.47Q125.11 5.04 126.43 5.04L126.43 5.04Q129.02 5.04 130.37 6.34Q131.71 7.63 131.71 9.94L131.71 9.94L128.88 9.94Q128.88 8.88 128.35 8.36Q127.82 7.85 126.40 7.85Q124.97 7.85 124.50 8.74Q124.03 9.62 124.03 11.40L124.03 11.40L124.03 12.65Q124.03 15.50 125.14 16.15L125.14 16.15Q125.64 16.46 126.46 16.46Q127.27 16.46 127.79 16.31Q128.30 16.15 128.53 15.77Q128.76 15.38 128.83 15.01Q128.90 14.64 128.93 13.92ZM144.96 9.65L144.96 18.94L141.84 18.94L141.84 10.34Q141.84 8.14 140.11 8.14L140.11 8.14L137.14 9.31L137.14 18.94L134.02 18.94L134.02 0.89L137.14 0.89L137.14 6.86L141.10 5.09Q143.21 5.09 144.08 6.29Q144.96 7.49 144.96 9.65L144.96 9.65Z" transform="translate(0, 47)"></path></svg>